<?xml version="1.0" encoding="UTF-8" standalone="no"?>
<!-- Created with Inkscape (http://www.inkscape.org/) -->

<svg
   width="150mm"
   height="150mm"
   viewBox="0 0 150 150"
   version="1.1"
   id="svg5"
   sodipodi:docname="compass_with_p_white.svg"
   inkscape:version="1.2.1 (9c6d41e410, 2022-07-14)"
   xmlns:inkscape="http://www.inkscape.org/namespaces/inkscape"
   xmlns:sodipodi="http://sodipodi.sourceforge.net/DTD/sodipodi-0.dtd"
   xmlns="http://www.w3.org/2000/svg"
   xmlns:svg="http://www.w3.org/2000/svg">
  <sodipodi:namedview
     id="namedview7"
     pagecolor="#ffffff"
     bordercolor="#000000"
     borderopacity="0.25"
     inkscape:showpageshadow="2"
     inkscape:pageopacity="0.0"
     inkscape:pagecheckerboard="0"
     inkscape:deskcolor="#d1d1d1"
     inkscape:document-units="mm"
     showgrid="false"
     inkscape:zoom="0.58897708"
     inkscape:cx="278.44887"
     inkscape:cy="246.18955"
     inkscape:window-width="1366"
     inkscape:window-height="700"
     inkscape:window-x="0"
     inkscape:window-y="32"
     inkscape:window-maximized="1"
     inkscape:current-layer="layer4"
     shape-rendering="auto" />
  <defs
     id="defs2">
    <rect
       x="172.79143"
       y="551.25977"
       width="50.84169"
       height="44.686054"
       id="rect12121" />
    <rect
       x="172.79143"
       y="551.25977"
       width="50.84169"
       height="44.686054"
       id="rect12649" />
    <rect
       x="172.79143"
       y="551.25977"
       width="50.84169"
       height="44.686054"
       id="rect13062" />
  </defs>
  <g
     inkscape:groupmode="layer"
     id="layer2"
     inkscape:label="Camada 3" />
  <g
     inkscape:groupmode="layer"
     id="layer4"
     inkscape:label="Camada 2">
    <path
       id="path8455"
       style="fill:none;stroke:#ffffff;stroke-width:3.849;stroke-dasharray:none;fill-opacity:1;stroke-opacity:1"
       d="M 101.20179,62.421456 A 25.389994,25.959903 0 0 1 75.811869,88.381206 25.389994,25.959903 0 0 1 50.421922,62.421456 25.389994,25.959903 0 0 1 75.811869,36.461694 25.389994,25.959903 0 0 1 101.20179,62.421456 Z" />
    <path
       id="path8616"
       style="fill:none;fill-opacity:0.990618;stroke:#ffffff;stroke-width:0.537;stroke-dasharray:2.148, 2.148;stroke-dashoffset:0;stroke-opacity:1"
       d="M 95.749071,62.274276 A 19.477764,19.914966 0 0 1 76.271396,82.189132 19.477764,19.914966 0 0 1 56.793677,62.274276 19.477764,19.914966 0 0 1 76.271396,42.359418 19.477764,19.914966 0 0 1 95.749071,62.274276 Z" />
    <path
       id="rect8826"
       style="fill:#ffffff;stroke-width:2.82632;stroke-opacity:0.549311;paint-order:stroke markers fill;fill-opacity:1"
       d="m 49.780927,40.34148 c 0.924507,0 1.637021,0.816827 1.668785,1.830321 l 2.045173,65.255579 c 0.03176,1.01351 -2.789451,6.63072 -3.713958,6.63072 -0.924507,0 -1.668785,-0.81632 -1.668785,-1.83032 V 42.171801 c 0,-1.013994 0.744278,-1.830321 1.668785,-1.830321 z"
       sodipodi:nodetypes="sssssss" />
    <ellipse
       style="opacity:0;fill:#ffffff;fill-opacity:1;stroke:#ffffff;stroke-width:0.874933;stroke-linecap:round;stroke-linejoin:round;stroke-dasharray:none;stroke-dashoffset:0;stroke-opacity:1;paint-order:stroke markers fill"
       id="path12971"
       cx="56.681221"
       cy="62.677727"
       rx="0.40290749"
       ry="0.3013429" />
    <rect
       style="opacity:0;fill:#08a5ee;fill-opacity:0.99950165;stroke:#ffffff;stroke-width:3.849;stroke-linecap:round;stroke-linejoin:round;paint-order:stroke markers fill"
       id="rect3410"
       width="17.199911"
       height="10.92979"
       x="44.227245"
       y="23.034248" />
  </g>
  <g
     inkscape:label="Camada 1"
     inkscape:groupmode="layer"
     id="layer1">
    <path
       id="rect4998"
       style="fill:#08a5ee;fill-opacity:1;stroke:#ffffff;stroke-width:0.234715;stroke-opacity:1"
       d="m 104.12115,65.901745 -3.262,-3.231722 3.23178,-3.261972 17.0494,3.231722 z"
       sodipodi:nodetypes="ccccc" />
    <path
       id="rect4998-2"
       style="fill:#08a5ee;fill-opacity:1;stroke:#ffffff;stroke-width:0.234715;stroke-opacity:1"
       d="m 97.571315,65.834905 3.261975,-3.231722 -3.231755,-3.261972 -17.049363,3.231722 z"
       sodipodi:nodetypes="ccccc" />
    <path
       id="path6457-9"
       style="fill:#08a5ee;fill-opacity:1;stroke:#ffffff;stroke-width:0.16003;stroke-opacity:1"
       d="m 97.169848,64.804161 2.224038,-2.203408 -2.203438,-2.224038 -11.624383,2.203408 z"
       sodipodi:nodetypes="ccccc" />
    <path
       id="rect4998-2-1"
       style="fill:#08a5ee;fill-opacity:1;stroke:#ffffff;stroke-width:0.105408;stroke-opacity:1"
       d="m 99.345886,61.204222 1.466004,1.449611 1.41947,-1.497101 -1.59328,-7.705418 z"
       sodipodi:nodetypes="ccccc" />
    <path
       id="path6457-9-2"
       style="fill:#08a5ee;fill-opacity:0.993581;stroke:#ffffff;stroke-width:0.0718681;stroke-opacity:1"
       d="m 99.860303,61.010412 0.999617,0.988244 0.96783,-1.020714 -1.08632,-5.2536 z"
       sodipodi:nodetypes="ccccc" />
    <path
       id="path7304"
       style="fill:#08a5ee;fill-opacity:1;stroke:#ffffff;stroke-width:0.105506;stroke-opacity:1"
       d="m 102.27389,63.991487 -1.48259,-1.434634 -1.403374,1.515551 1.678804,7.697468 z"
       sodipodi:nodetypes="ccccc" />
    <path
       id="path7306"
       style="fill:#08a5ee;fill-opacity:1;stroke:#ffffff;stroke-width:0.0719347;stroke-opacity:1"
       d="m 101.76137,64.191474 -1.01101,-0.977944 -0.956877,1.033294 1.144667,5.2482 z"
       sodipodi:nodetypes="ccccc" />
    <path
       id="path10549"
       style="fill:#08a5ee;fill-opacity:1;stroke:#ffffff;stroke-width:0.16003;stroke-opacity:1"
       d="m 104.72346,60.376715 -2.22405,2.203408 2.20344,2.224038 11.6244,-2.203408 z"
       sodipodi:nodetypes="ccccc" />
  </g>
</svg>
